<?xml version="1.0" encoding="utf-8"?>
<!-- Generator: Adobe Illustrator 22.0.1, SVG Export Plug-In . SVG Version: 6.00 Build 0) -->
<!DOCTYPE svg PUBLIC "-//W3C//DTD SVG 1.1//EN" "http://www.w3.org/Graphics/SVG/1.1/DTD/svg11.dtd">
<svg version="1.1" id="Layer_2" xmlns="http://www.w3.org/2000/svg" xmlns:xlink="http://www.w3.org/1999/xlink" x="0px" y="0px" width="537.5px" height="125px" viewBox="0 0 537.5 125" enable-background="new 0 0 537.5 125" xml:space="preserve">
	<style type="text/css">
		.st0 {
			fill: #4091EF;
		}
		.st1 {
			fill: #0064C2;
		}
		.st2 {
			fill: #003C74;
		}
		.st3 {
			fill: #61B3FF;
		}
	</style>
	<title>tradeX.ai</title>
	<g>
		<path
			class="st0"
			d="M487.1,58.3v52.8h-25.4v-9.3c-5.3,6.9-13.8,10.5-24.7,10.5c-17.2,0-27.7-10.5-27.7-25.3
		c0-15.3,10.9-24.3,31-24.4h21.3v-1.2c0-8-5.3-12.8-15.7-12.8c-6.8,0-15.6,2.4-24.1,6.8l-7.4-17.1c12.6-5.8,24-9.1,37.5-9.1
		C474.1,29.1,487,40,487.1,58.3z M461.6,83.7v-7.2h-16.4c-7.8,0-11.7,2.7-11.7,8.7c0,5.8,4.2,9.6,11.4,9.6
		C453.1,94.8,460,90.3,461.6,83.7z"/>
		<path class="st0" d="M500.9,111.1V30.3h25.8v80.8C526.7,111.1,500.9,111.1,500.9,111.1z"/>
	</g>
	<g id="aperture">
		<path class="st1" d="M399.1,107.8c0,0-4,4.5-8.8,4.5c-2.4-2.1-3.7-5.3-3.5-8.5C391.4,108.5,399.1,107.8,399.1,107.8z"/>
		<path class="st2" d="M400.7,95.8c0,0,1.9,5.7-0.5,9.8c-3.1,1.1-6.4,0.6-9.1-1.2C397.5,102.9,400.7,95.8,400.7,95.8z"/>
		<path class="st1" d="M391.2,88.4c0,0,5.9,1.2,8.3,5.3c-0.6,3.2-2.7,5.9-5.6,7.3C395.7,94.7,391.2,88.4,391.2,88.4z"/>
		<path class="st0" d="M380,93c0,0,4-4.5,8.8-4.5c2.4,2.1,3.7,5.3,3.5,8.5C387.7,92.2,380,93,380,93z"/>
		<path class="st3" d="M378.4,104.9c0,0-1.9-5.7,0.5-9.8c3.1-1.1,6.4-0.6,9.1,1.2C381.6,97.9,378.4,104.9,378.4,104.9z"/>
		<path class="st0" d="M387.9,112.3c0,0-5.9-1.2-8.3-5.3c0.6-3.2,2.7-5.9,5.6-7.3C383.4,106,387.9,112.3,387.9,112.3z"/>
	</g>
	<g>
		<path d="M28.5,27.6v18.5H42v14.8H28.5v23.4c0,7.8,1.7,11.4,7.4,11.4c2.3,0,4.2-0.3,5.6-0.5l0.1,15.2c-2.5,1.1-6.9,1.7-12.2,1.7
		c-6.1,0-11.1-2.3-14.1-5.6c-3.5-3.8-5.2-10.1-5.2-19.2V60.9h-8V46.1h8v-14L28.5,27.6z"/>
		<path d="M52.9,67.4c0-9.5-0.2-15.8-0.5-21.3h16.2L69.2,58h0.5c3.1-9.4,10.5-13.4,16.3-13.4c1.7,0,2.6,0,4,0.3v18.9
		c-1.4-0.3-3-0.5-5.1-0.5c-6.9,0-11.6,4-12.8,10.2c-0.2,1.3-0.4,2.9-0.4,4.5v32.9H52.9V67.4z"/>
		<path
			d="M132.8,110.9l-1.1-6.5h-0.4c-4,5.2-10.1,7.9-17.3,7.9c-12.2,0-19.5-9.5-19.5-19.9c0-16.8,14.1-24.9,35.4-24.8v-0.9
		c0-3.4-1.7-8.3-11-8.3c-6.2,0-12.7,2.3-16.7,4.9l-3.5-13c4.2-2.5,12.5-5.7,23.5-5.7c20.1,0,26.6,12.7,26.6,28v22.5
		c0,6.2,0.2,12.2,0.9,15.8C149.7,110.9,132.8,110.9,132.8,110.9z M130.5,80.3c-9.9-0.1-17.5,2.4-17.5,10.2c0,5.2,3.2,7.7,7.4,7.7
		c4.7,0,8.5-3.3,9.8-7.4c0.2-1.1,0.4-2.3,0.4-3.4L130.5,80.3L130.5,80.3z"/>
		<path
			d="M222.2,16.8v74.7c0,7.3,0.2,15,0.5,19.3H206l-0.9-9.5h-0.2c-3.8,7.3-11.1,11-18.9,11c-14.3,0-25.8-13.1-25.8-33.3
		c-0.1-21.9,12.6-34.4,27-34.4c7.4,0,13.2,2.8,15.9,7.3h0.2V16.8H222.2z M203.4,73.5c0-1.1-0.1-2.5-0.2-3.6c-1.1-5.4-5.2-9.9-11-9.9
		c-8.5,0-13,8.2-13,18.4c0,11,5.1,17.9,12.8,17.9c5.4,0,9.8-4,10.9-9.7c0.4-1.5,0.5-2.9,0.5-4.6V73.5z"/>
		<path
			d="M251.7,84.9c0.6,8.3,8.3,12.3,17,12.3c6.4,0,11.6-0.9,16.7-2.6l2.5,13.6c-6.2,2.6-13.7,4-21.9,4c-20.5,0-32.2-12.7-32.2-33
		c0-16.4,9.5-34.6,30.5-34.6c19.5,0,26.9,16.3,26.9,32.3c0,3.4-0.4,6.5-0.6,7.9L251.7,84.9L251.7,84.9z M273.8,71.1
		c0-4.9-2-13.1-10.6-13.1c-7.9,0-11.1,7.7-11.6,13.1H273.8z"/>
		<path class="st0"
			d="M346.9,110.9l-7.5-16.2c-3.1-6.2-5.1-10.9-7.4-16h-0.2c-1.7,5.2-3.8,9.8-6.4,16l-6.9,16.2H297l24-45.2l-23.2-44.1h21.6
		l7.3,16.3c2.5,5.4,4.3,9.8,6.3,14.8h0.2c2-5.7,3.6-9.7,5.7-14.8l7-16.3h21.5L344,65.2l24.7,45.7
		C368.7,110.9,346.9,110.9,346.9,110.9z"/>
	</g>
</svg>
